<svg width="560" height="395" viewBox="0 0 560 395" fill="none" xmlns="http://www.w3.org/2000/svg">
<path d="M3.6 43V7.5H11.8V31.35L27.1 7.5H34.75V43H26.55V19.3L11.45 43H3.6ZM41.1789 43V16.75H49.1289V26.15H51.0289L57.5289 16.75H66.1289L57.1289 29.35L67.0789 43H57.9289L50.8789 33.1H49.1289V43H41.1789ZM82.2422 43.5C79.2422 43.5 76.6922 42.8667 74.5922 41.6C72.5255 40.3333 70.9422 38.6667 69.8422 36.6C68.7422 34.5333 68.1922 32.3 68.1922 29.9C68.1922 27.4667 68.7422 25.2167 69.8422 23.15C70.9422 21.0833 72.5422 19.4167 74.6422 18.15C76.7422 16.8833 79.2755 16.25 82.2422 16.25C85.2089 16.25 87.7422 16.8833 89.8422 18.15C91.9422 19.4167 93.5422 21.0833 94.6422 23.15C95.7422 25.2167 96.2922 27.4667 96.2922 29.9C96.2922 32.3 95.7422 34.5333 94.6422 36.6C93.5422 38.6667 91.9422 40.3333 89.8422 41.6C87.7422 42.8667 85.2089 43.5 82.2422 43.5ZM76.3922 29.9C76.3922 31.9333 76.9422 33.5833 78.0422 34.85C79.1755 36.1167 80.5755 36.75 82.2422 36.75C83.8755 36.75 85.2422 36.1167 86.3422 34.85C87.4755 33.5833 88.0422 31.9333 88.0422 29.9C88.0422 27.8667 87.4755 26.2167 86.3422 24.95C85.2422 23.6833 83.8755 23.05 82.2422 23.05C80.5755 23.05 79.1755 23.6833 78.0422 24.95C76.9422 26.2167 76.3922 27.8667 76.3922 29.9ZM100.31 43V16.75H108.31V26.25H117.26V16.75H125.26V43H117.26V32.85H108.31V43H100.31ZM130.876 43V16.75H138.826V26.15H140.726L147.226 16.75H155.826L146.826 29.35L156.776 43H147.626L140.576 33.1H138.826V43H130.876ZM160.808 43V16.75H168.808V32.35L178.958 16.75H186.258V43H178.258V27.85L168.158 43H160.808Z" fill="black"/>
<g clip-path="url(#clip0_466_191)">
<path d="M50.7 371.757L44.2 363.557C43.9 363.157 43.5 362.957 43 362.957H34.7V357.857C34.7 357.057 34 356.357 33.2 356.357H5.5C4.7 356.357 4 357.057 4 357.857C4 358.657 4.7 359.357 5.5 359.357H31.7V364.457V381.057H19.8C19.2 379.157 17.4 377.757 15.3 377.757C12.7 377.757 10.5 379.957 10.5 382.557C10.5 385.157 12.7 387.357 15.3 387.357C17.4 387.357 19.2 385.957 19.8 384.057H33.2C34 384.057 34.7 383.357 34.7 382.557V365.957H42.3L48 373.257V381.157H45.8C45.2 379.257 43.4 377.857 41.3 377.857C38.7 377.857 36.5 380.057 36.5 382.657C36.5 385.257 38.6 387.457 41.3 387.457C43.4 387.457 45.2 386.057 45.8 384.157H49.5C50.3 384.157 51 383.457 51 382.657V372.757C51 372.357 50.9 372.057 50.7 371.757ZM15.3 384.357C14.3 384.357 13.5 383.557 13.5 382.557C13.5 381.557 14.3 380.757 15.3 380.757C16.3 380.757 17.1 381.557 17.1 382.557C17.1 383.557 16.2 384.357 15.3 384.357ZM41.4 384.357C40.4 384.357 39.6 383.557 39.6 382.557C39.6 381.557 40.4 380.757 41.4 380.757C42.4 380.757 43.2 381.557 43.2 382.557C43.2 383.557 42.3 384.357 41.4 384.357Z" fill="black"/>
<path d="M23.4 365.957C24.2 365.957 24.9 365.257 24.9 364.457C24.9 363.657 24.2 362.957 23.4 362.957H8.80005C8.00005 362.957 7.30005 363.657 7.30005 364.457C7.30005 365.257 8.00005 365.957 8.80005 365.957H23.4Z" fill="black"/>
<path d="M21.7 371.057C21.7 370.257 21 369.557 20.2 369.557H5.5C4.7 369.557 4 370.257 4 371.057C4 371.857 4.7 372.557 5.5 372.557H20.2C21 372.557 21.7 371.857 21.7 371.057Z" fill="black"/>
</g>
<g clip-path="url(#clip1_466_191)">
<path d="M31.2 176.357V211.657H23.6V209.257C21.9 211.157 19.5 212.357 16.1 212.357C9.5 212.357 4 206.557 4 199.057C4 191.557 9.5 185.757 16.1 185.757C19.5 185.757 22 186.957 23.6 188.857V176.357H31.2ZM23.6 199.057C23.6 195.257 21.1 192.857 17.6 192.857C14.1 192.857 11.6 195.257 11.6 199.057C11.6 202.857 14.1 205.257 17.6 205.257C21.1 205.157 23.6 202.857 23.6 199.057Z" fill="black"/>
<path d="M47.7001 205.557C49.8001 205.557 51.5001 204.757 52.5001 203.657L58.6001 207.157C56.1001 210.557 52.4001 212.357 47.6001 212.357C39.0001 212.357 33.6001 206.557 33.6001 199.057C33.6001 191.557 39.0001 185.757 47.0001 185.757C54.4001 185.757 59.8001 191.457 59.8001 199.057C59.8001 200.157 59.7001 201.157 59.5001 202.057H41.6001C42.6001 204.657 44.9001 205.557 47.7001 205.557ZM52.3001 196.457C51.5001 193.557 49.2001 192.457 46.9001 192.457C44.0001 192.457 42.1001 193.857 41.4001 196.457H52.3001Z" fill="black"/>
<path d="M86.0999 186.457L76.7999 211.657H68.1999L58.8999 186.457H67.2999L72.5999 202.457L77.8999 186.457C77.8999 186.457 86.0999 186.457 86.0999 186.457Z" fill="black"/>
<path d="M87.3999 186.457H94.9999V211.657H87.3999V186.457Z" fill="black"/>
<path d="M97.6001 199.057C97.6001 191.557 103.3 185.757 111 185.757C115.9 185.757 120.2 188.357 122.4 192.257L115.8 196.057C114.9 194.257 113.1 193.257 110.9 193.257C107.6 193.257 105.2 195.657 105.2 199.057C105.2 202.557 107.6 204.857 110.9 204.857C113.1 204.857 115 203.757 115.8 202.057L122.4 205.857C120.3 209.757 116 212.357 111 212.357C103.3 212.357 97.6001 206.557 97.6001 199.057Z" fill="black"/>
<path d="M136.8 205.557C138.9 205.557 140.6 204.757 141.6 203.657L147.7 207.157C145.2 210.557 141.5 212.357 136.7 212.357C128.1 212.357 122.7 206.557 122.7 199.057C122.7 191.557 128.2 185.757 136.1 185.757C143.5 185.757 148.9 191.457 148.9 199.057C148.9 200.157 148.8 201.157 148.6 202.057H130.7C131.7 204.657 134 205.557 136.8 205.557ZM141.5 196.457C140.7 193.557 138.4 192.457 136.1 192.457C133.2 192.457 131.3 193.857 130.6 196.457H141.5Z" fill="black"/>
<path d="M87.3999 176.357V186.457L94.9999 176.357H87.3999Z" fill="#510094"/>
</g>
<g clip-path="url(#clip2_466_191)">
<path d="M141 274.357H61V281.357H141V274.357Z" fill="black"/>
</g>
<g clip-path="url(#clip3_466_191)">
<path d="M24 330.357H20.5L4 300.357L20.5 270.357H24L7.8 300.357L24 330.357Z" fill="black"/>
</g>
<g clip-path="url(#clip4_466_191)">
<path d="M226.7 325.357C227.7 325.657 228.1 326.357 228 327.457C228 328.957 228 330.457 228 331.957C228 332.957 227.3 333.757 226.3 333.757C225.4 333.757 224.6 333.057 224.6 332.057C224.6 330.357 224.6 328.757 224.6 327.057C224.6 326.157 225.1 325.657 225.9 325.357C226.2 325.357 226.4 325.357 226.7 325.357Z" fill="black"/>
<path d="M213 338.357C213.4 337.357 214.1 337.057 215.1 337.057C216.6 337.057 218.1 337.057 219.6 337.057C220.9 337.057 221.7 338.257 221.2 339.357C220.9 340.057 220.4 340.357 219.7 340.357C218 340.357 216.3 340.357 214.6 340.357C213.7 340.357 213.2 339.857 213 339.057C213 338.757 213 338.557 213 338.357Z" fill="black"/>
<path d="M253 352.357C252.6 353.357 251.9 353.757 250.9 353.657C249.4 353.657 247.9 353.657 246.5 353.657C245.3 353.657 244.5 352.757 244.8 351.657C245 350.957 245.6 350.357 246.3 350.357C248 350.357 249.7 350.357 251.4 350.357C252.3 350.357 252.7 350.957 253 351.657C253 351.957 253 352.157 253 352.357Z" fill="black"/>
<path d="M239.3 365.357C238.3 365.057 237.9 364.357 238 363.257C238 361.757 238 360.257 238 358.757C238 357.757 238.7 356.957 239.7 356.957C240.6 356.957 241.4 357.657 241.4 358.757C241.4 360.257 241.4 361.757 241.4 363.157C241.4 364.157 241.1 364.957 240.1 365.257C239.8 365.357 239.6 365.357 239.3 365.357Z" fill="black"/>
<path d="M234.3 352.257C232 352.257 230 351.557 228.4 349.957C227.9 349.457 227.7 348.857 228 348.157C228.2 347.457 228.7 347.157 229.4 347.057C229.9 346.957 230.4 347.257 230.8 347.557C231.8 348.457 232.9 349.057 234.2 349.057C235.5 349.057 236.7 348.557 237.6 347.557C241.2 344.057 244.7 340.457 248.2 336.957C249.7 335.457 250.1 333.457 249.3 331.757C248.4 329.757 246.8 328.457 244.5 328.457C243.1 328.457 242 329.057 241 330.057C239.1 331.957 237.3 333.757 235.4 335.657C234.7 336.357 233.6 336.357 232.9 335.657C232.3 334.957 232.3 334.057 233 333.357C234 332.357 234.9 331.357 235.9 330.457C236.8 329.557 237.7 328.657 238.6 327.757C242.2 324.157 249.4 324.757 251.8 329.857C253.3 332.957 252.8 337.157 250.2 339.757C246.8 343.057 243.5 346.457 240.2 349.757C238.7 351.457 236.6 352.257 234.3 352.257Z" fill="black"/>
<path d="M231.2 339.357C233 339.357 235 340.057 236.6 341.657C237.1 342.157 237.2 342.757 237 343.457C236.8 344.057 236.3 344.457 235.6 344.557C235 344.657 234.6 344.457 234.2 344.057C233.4 343.357 232.6 342.757 231.5 342.557C229.8 342.257 228.5 342.857 227.3 343.957C226.3 344.957 225.3 345.957 224.3 346.957C222.1 349.157 220 351.357 217.8 353.457C217 354.257 216.5 355.157 216.3 356.257C216 358.057 216.7 359.557 218 360.757C220.1 362.757 222.8 362.657 224.9 360.657C226.5 359.057 228 357.557 229.6 355.957C230.1 355.457 230.7 355.257 231.4 355.557C232 355.757 232.4 356.257 232.5 356.957C232.6 357.457 232.4 357.857 232.1 358.257C230.4 359.957 228.8 361.757 227 363.357C224.5 365.557 221.6 365.857 218.5 364.857C215.6 363.857 213.9 361.757 213.3 358.657C212.8 355.757 213.5 353.157 215.7 350.957C218.7 347.957 221.7 344.957 224.7 341.957C226.4 340.257 228.4 339.357 231.2 339.357Z" fill="black"/>
<path d="M218 328.657C218.5 328.657 218.8 328.857 219.2 329.157C220.9 330.857 222.6 332.457 224.2 334.157C224.9 334.857 224.8 335.857 224.2 336.557C223.6 337.157 222.5 337.157 221.9 336.557C220.2 334.857 218.5 333.157 216.9 331.457C216.3 330.957 216.2 330.357 216.5 329.657C216.7 329.057 217.3 328.657 218 328.657Z" fill="black"/>
<path d="M243 353.657C243.5 353.657 243.8 353.857 244.2 354.157C245.9 355.857 247.6 357.457 249.2 359.157C249.9 359.857 249.8 360.857 249.2 361.457C248.6 362.057 247.5 362.057 246.9 361.457C245.2 359.757 243.5 358.157 241.9 356.457C241.4 355.957 241.3 355.257 241.6 354.657C241.8 354.057 242.3 353.757 243 353.657Z" fill="black"/>
</g>
<g clip-path="url(#clip5_466_191)">
<path d="M140 373.257V375.857H142.5V373.257H140Z" fill="black"/>
<path d="M151.6 364.857C150 364.857 148.8 365.557 148 366.557H147.9V360.357H145.9V375.857H147.9V370.557C147.9 368.457 149.2 366.957 151.2 366.957C153 366.957 154.1 368.357 154.1 370.157V375.857H156.1V369.757C156.2 366.757 154.3 364.857 151.6 364.857Z" fill="black"/>
<path d="M166.6 365.157H161.8V361.457H159.8V365.257H157.9V367.257H159.8V373.257C159.8 374.957 160.8 375.957 162.5 375.957H166.6V373.957H162.9C162.2 373.957 161.8 373.557 161.8 372.857V367.157H166.6V365.157Z" fill="black"/>
<path d="M181.1 364.957C179.5 364.957 178.2 365.757 177.6 367.057H177.5C176.9 365.857 175.7 364.957 174.1 364.957C172.7 364.957 171.6 365.757 171 366.757H170.9V365.157H169V375.757H171V370.357C171 368.357 172 366.857 173.6 366.857C175.1 366.857 176 367.857 176 369.457V375.757H178V370.157C178 367.757 179.4 366.857 180.6 366.857C182.1 366.857 183 367.857 183 369.457V375.757H185V369.257C185.1 366.757 183.6 364.957 181.1 364.957Z" fill="black"/>
<path d="M187.8 373.057C187.8 374.757 188.8 375.757 190.6 375.757H192.6V373.757H190.9C190.2 373.757 189.8 373.357 189.8 372.657V360.357H187.8V373.057Z" fill="black"/>
<path d="M168.9 380.057C168 378.957 166.7 378.257 165 378.257C161.9 378.257 159.6 380.557 159.6 383.857C159.6 387.157 161.9 389.457 165 389.457C166.8 389.457 168 388.657 168.8 387.557H168.9V389.157H170.9V378.557H168.9V380.057ZM165.3 387.457C163.1 387.457 161.7 385.857 161.7 383.857C161.7 381.857 163.1 380.257 165.3 380.257C167.5 380.257 168.9 381.857 168.9 383.857C168.9 385.757 167.5 387.457 165.3 387.457Z" fill="black"/>
<path d="M184.2 382.357C183.7 379.957 181.6 378.257 178.8 378.257C175.4 378.257 173.2 380.757 173.2 383.857C173.2 386.957 175.4 389.457 178.8 389.457C181.6 389.457 183.7 387.657 184.2 385.257H182.1C181.7 386.557 180.4 387.557 178.8 387.557C176.6 387.557 175.2 385.957 175.2 383.957C175.2 381.957 176.6 380.357 178.8 380.357C180.4 380.357 181.6 381.357 182.1 382.557H184.2V382.357Z" fill="black"/>
<path d="M195.1 380.057C194.2 378.957 192.9 378.257 191.2 378.257C188.1 378.257 185.8 380.557 185.8 383.857C185.8 387.157 188.1 389.457 191.2 389.457C193 389.457 194.2 388.657 195 387.557H195.1V389.157H197.1V378.557H195.1V380.057ZM191.5 387.457C189.3 387.457 187.9 385.857 187.9 383.857C187.9 381.857 189.3 380.257 191.5 380.257C193.7 380.257 195.1 381.857 195.1 383.857C195.1 385.757 193.6 387.457 191.5 387.457Z" fill="black"/>
<path d="M208.7 380.157C207.8 379.057 206.5 378.257 204.8 378.257C201.7 378.257 199.4 380.557 199.4 383.857C199.4 387.157 201.6 389.457 204.8 389.457C206.5 389.457 207.8 388.657 208.6 387.657H208.7V389.157H210.7V373.757H208.7V380.157ZM205.1 387.457C202.9 387.457 201.5 385.857 201.5 383.857C201.5 381.857 202.9 380.257 205.1 380.257C207.3 380.257 208.7 381.857 208.7 383.857C208.6 385.857 207.2 387.457 205.1 387.457Z" fill="black"/>
<path d="M218.3 378.257C215 378.257 212.8 380.757 212.8 383.857C212.8 386.857 214.9 389.457 218.3 389.457C220.8 389.457 222.8 388.157 223.5 385.857H221.4C220.9 386.857 219.8 387.457 218.4 387.457C216.5 387.457 215.1 386.157 215 384.557H223.8C224 380.957 221.8 378.257 218.3 378.257ZM218.3 380.157C220 380.157 221.3 381.157 221.6 382.757H215.1C215.4 381.257 216.6 380.157 218.3 380.157Z" fill="black"/>
<path d="M238.2 378.257C236.6 378.257 235.3 379.057 234.6 380.257H234.5C233.9 379.057 232.7 378.257 231.1 378.257C229.7 378.257 228.6 378.957 228 380.057V378.557H226.1V389.157H228.1V383.757C228.1 381.757 229.1 380.357 230.7 380.257C232.2 380.257 233.1 381.257 233.1 382.857V389.157H235.1V383.557C235.1 381.157 236.5 380.257 237.7 380.257C239.2 380.257 240.1 381.257 240.1 382.857V389.157H242.1V382.657C242.2 380.057 240.7 378.257 238.2 378.257Z" fill="black"/>
<path d="M249.4 387.357L245.8 378.457H243.6L248.4 390.057C248.1 390.957 247.7 391.257 246.7 391.257H244.2V393.257H246.7C248.5 393.257 249.5 392.457 250.2 390.657L254.9 378.457H252.8L249.4 387.357Z" fill="black"/>
</g>
<g clip-path="url(#clip6_466_191)">
<path d="M195 326.357C208.255 326.357 219 315.612 219 302.357C219 289.102 208.255 278.357 195 278.357C181.745 278.357 171 289.102 171 302.357C171 315.612 181.745 326.357 195 326.357Z" fill="#FFE17F"/>
<path d="M195.1 294.557C192 294.557 189.5 297.157 189.5 300.357C189.5 300.957 189.6 301.457 189.7 301.957C189.8 302.357 190 302.857 190.2 303.157C191 304.857 192.2 306.457 194.5 309.157C194.7 309.357 195.2 309.757 195.8 309.057C200.6 303.657 200.6 300.957 200.6 300.957C200.6 300.757 200.6 300.457 200.6 300.257C200.7 297.157 198.2 294.557 195.1 294.557Z" fill="black"/>
<path d="M195 278.357C181.7 278.357 171 289.057 171 302.357C171 314.257 179.7 324.157 191.1 326.057L195.1 332.357L199.1 325.957C210.4 324.057 219 314.257 219 302.357C219 289.057 208.3 278.357 195 278.357ZM204 300.757C204 300.757 204.1 305.057 195.9 313.757C195.1 314.557 194.3 313.757 194.3 313.757C190.5 309.357 188.5 306.857 187.2 304.157C186.9 303.557 186.6 302.957 186.4 302.257C186.2 301.457 186 300.657 186 299.757C186 294.757 190.1 290.657 195.1 290.657C200.1 290.657 204.2 294.757 204.2 299.757C204.1 300.057 204 300.357 204 300.757Z" fill="black"/>
</g>
<g clip-path="url(#clip7_466_191)">
<path d="M116.8 299.457L113.8 296.457C113.6 296.257 113.3 296.257 113.1 296.457C113 296.657 113 297.057 113.1 297.257L115.7 299.857L113.1 302.457C113 302.657 113 302.957 113.1 303.157C113.2 303.257 113.4 303.357 113.5 303.357C113.6 303.357 113.8 303.257 113.9 303.257L116.9 300.257C116.9 300.157 117 299.957 117 299.857C117 299.757 116.9 299.557 116.8 299.457Z" fill="black"/>
</g>
<g clip-path="url(#clip8_466_191)">
<path d="M31 330.357H34.5L51 300.357L34.5 270.357H31L47.2 300.357L31 330.357Z" fill="black"/>
</g>
<g clip-path="url(#clip9_466_191)">
<path d="M70.9001 325.457C71.0001 325.457 71.1001 325.457 71.1001 325.457C73.2001 325.457 75.3001 325.457 77.3001 325.457C78.0001 325.457 78.5001 325.757 78.8001 326.357C79.0001 326.757 79.0001 327.157 78.8001 327.657C78.2001 329.557 77.5001 331.457 76.9001 333.357C76.8001 333.657 76.7001 333.957 76.6001 334.157C76.4001 334.857 75.8001 335.257 75.1001 335.257C73.0001 335.257 70.8001 335.257 68.7001 335.257C68.4001 335.257 68.2001 335.257 67.9001 335.157C66.9001 334.857 66.1001 333.957 66.1001 332.857C66.1001 331.357 66.1001 329.857 66.1001 328.357C66.1001 327.457 66.1001 326.557 66.1001 325.657C66.1001 325.457 66.1001 325.357 66.2001 325.257C67.9001 323.357 69.5001 321.457 71.1001 319.457C71.1001 319.357 71.2001 319.357 71.3001 319.357C72.4001 319.957 73.0001 321.357 72.4001 322.557C72.0001 323.457 71.5001 324.357 71.1001 325.157C71.0001 325.257 71.0001 325.357 70.9001 325.457Z" fill="black"/>
<path d="M64.9 330.057C64.9 331.457 64.9 332.957 64.9 334.357C64.9 334.557 64.8 334.557 64.7 334.557C63.5 334.557 62.4 334.557 61.2 334.557C61 334.557 61 334.557 61 334.357C61 331.457 61 328.557 61 325.657C61 325.457 61.1 325.457 61.2 325.457C62.4 325.457 63.5 325.457 64.7 325.457C64.9 325.457 64.9 325.557 64.9 325.657C64.9 327.157 64.9 328.557 64.9 330.057Z" fill="black"/>
</g>
<g clip-path="url(#clip10_466_191)">
<path d="M104 321.357L94.4 330.657L90 326.357V331.057L94.5 335.357L104 326.057V321.357Z" fill="#08AF00"/>
</g>
<g clip-path="url(#clip11_466_191)">
<path d="M124 325.357L117.1 331.957L114 328.957V332.257L117.2 335.357L124 328.657V325.357Z" fill="black"/>
</g>
<g clip-path="url(#clip12_466_191)">
<path d="M134 335.357V322.357H147L134 335.357Z" fill="black"/>
</g>
<g clip-path="url(#clip13_466_191)">
<path d="M171 335.357H157L164 329.357L171 335.357Z" fill="black"/>
</g>
<defs>
<clipPath id="clip0_466_191">
<rect width="47" height="31" fill="white" transform="translate(4 356.357)"/>
</clipPath>
<clipPath id="clip1_466_191">
<rect width="145" height="36" fill="white" transform="translate(4 176.357)"/>
</clipPath>
<clipPath id="clip2_466_191">
<rect width="80" height="7" fill="white" transform="translate(61 274.357)"/>
</clipPath>
<clipPath id="clip3_466_191">
<rect width="20" height="60" fill="white" transform="translate(4 270.357)"/>
</clipPath>
<clipPath id="clip4_466_191">
<rect width="40" height="40" fill="white" transform="translate(213 325.357)"/>
</clipPath>
<clipPath id="clip5_466_191">
<rect width="115" height="34" fill="white" transform="translate(140 360.357)"/>
</clipPath>
<clipPath id="clip6_466_191">
<rect width="48" height="54" fill="white" transform="translate(171 278.357)"/>
</clipPath>
<clipPath id="clip7_466_191">
<rect width="4" height="7" fill="white" transform="translate(113 296.357)"/>
</clipPath>
<clipPath id="clip8_466_191">
<rect width="20" height="60" fill="white" transform="translate(31 270.357)"/>
</clipPath>
<clipPath id="clip9_466_191">
<rect width="18" height="16" fill="white" transform="translate(61 319.357)"/>
</clipPath>
<clipPath id="clip10_466_191">
<rect width="14" height="14" fill="white" transform="translate(90 321.357)"/>
</clipPath>
<clipPath id="clip11_466_191">
<rect width="10" height="10" fill="white" transform="translate(114 325.357)"/>
</clipPath>
<clipPath id="clip12_466_191">
<rect width="13" height="13" fill="white" transform="translate(134 322.357)"/>
</clipPath>
<clipPath id="clip13_466_191">
<rect width="14" height="6" fill="white" transform="translate(157 329.357)"/>
</clipPath>
</defs>
</svg>
